<svg xmlns="http://www.w3.org/2000/svg" width="24" height="24" viewBox="0 0 24 24">
    <g fill="#E2E2E5" fill-rule="evenodd">
        <circle cx="12" cy="12" r="12"/>
        <g fill-rule="nonzero" stroke="#454545" stroke-width=".5">
            <path d="M15.5 17.5h-7v-3.75a2.8 2.8 0 0 1 .012-.248l.01-.08c.006-.056.015-.112.025-.167l.015-.084c.016-.072.034-.142.055-.212.01-.035.023-.068.035-.102a2.735 2.735 0 0 1 .09-.228c.015-.036.033-.071.05-.106.026-.051.053-.101.081-.15.025-.043.05-.086.077-.127.021-.032.044-.063.066-.094a2.522 2.522 0 0 1 .24-.291 2.837 2.837 0 0 1 .401-.349c.032-.023.063-.045.096-.066.033-.022.067-.041.1-.061a2.74 2.74 0 0 1 .197-.106c.034-.017.067-.034.102-.049l.04-.018A2.737 2.737 0 0 1 11.25 11h1.5c.375 0 .732.076 1.058.212l.04.018c.034.015.068.033.101.05.068.032.133.067.197.105a2.824 2.824 0 0 1 .296.202l.085.067a2.697 2.697 0 0 1 .314.314 2.943 2.943 0 0 1 .143.184c.022.031.045.062.065.094a2.714 2.714 0 0 1 .158.277 2.74 2.74 0 0 1 .141.334l.035.102c.02.07.039.14.054.212l.016.084a2.846 2.846 0 0 1 .047.495v3.75zM13.54 7.226l.016.02.035.047c.127.168.225.35.293.543l.014.037c.03.09.052.182.07.275l.008.06c.014.096.024.193.024.292 0 .082-.006.163-.016.243-.002.019-.006.037-.009.056-.01.066-.023.132-.04.196l-.01.041a2.008 2.008 0 0 1-.331.667l-.013.018c-.102.131-.22.25-.354.355l-.023.017c-.062.047-.127.09-.194.13l-.036.022-.028.016a1.987 1.987 0 0 1-1.891 0l-.029-.016-.035-.022a2.014 2.014 0 0 1-.194-.13l-.024-.017a2.021 2.021 0 0 1-.353-.355l-.014-.018a2.018 2.018 0 0 1-.331-.667l-.01-.04a1.99 1.99 0 0 1-.04-.197l-.009-.056A1.964 1.964 0 0 1 10 8.5c0-.099.01-.196.024-.292l.009-.06c.017-.092.039-.184.069-.274l.014-.038a2 2 0 0 1 .293-.543l.035-.047.015-.02a1.997 1.997 0 0 1 3.082 0z"/>
        </g>
    </g>
</svg>
